<?xml version="1.0" standalone="no"?>
<!DOCTYPE svg PUBLIC "-//W3C//DTD SVG 20010904//EN"
 "http://www.w3.org/TR/2001/REC-SVG-20010904/DTD/svg10.dtd">
<svg version="1.0" xmlns="http://www.w3.org/2000/svg"
 width="512.000000pt" height="512.000000pt" viewBox="0 0 512.000000 512.000000"
 preserveAspectRatio="xMidYMid meet">

<g transform="translate(0.000000,512.000000) scale(0.100000,-0.100000)"
fill="#006994" stroke="none">
<path d="M2370 5103 c0 -9 12 -36 26 -60 15 -26 24 -55 22 -71 l-3 -27 -125 0
c-106 0 -132 -3 -170 -21 -52 -24 -73 -46 -68 -71 2 -14 17 -20 60 -25 72 -9
128 -36 147 -70 23 -40 2 -58 -65 -58 -58 0 -134 -25 -134 -44 0 -6 18 -21 40
-34 57 -32 53 -53 -30 -164 -196 -260 -220 -475 -84 -758 58 -121 158 -270
329 -490 254 -328 352 -476 415 -626 40 -97 48 -134 27 -134 -22 0 -45 26
-142 161 -624 865 -1297 1094 -2070 704 -67 -34 -147 -78 -178 -99 -86 -57
-88 -101 -4 -100 382 6 397 5 515 -51 54 -26 72 -39 72 -54 0 -24 -5 -27 -247
-169 -248 -147 -364 -240 -411 -329 -27 -49 -9 -44 74 21 120 93 205 126 496
190 338 75 378 78 378 26 0 -10 -25 -82 -56 -160 -39 -101 -54 -151 -52 -178
5 -58 34 -54 153 19 240 147 431 201 632 178 193 -21 357 -104 500 -252 270
-280 368 -706 198 -856 -56 -49 -113 -65 -208 -58 -87 6 -142 23 -274 81 -45
20 -93 36 -107 36 -85 0 62 -178 214 -259 163 -86 367 -78 524 21 105 67 208
181 279 309 50 90 104 260 123 388 16 105 15 330 -2 499 -11 112 27 67 79 -93
42 -129 59 -221 64 -369 11 -257 -44 -486 -170 -714 -59 -106 -58 -105 -184
-246 -137 -153 -184 -212 -232 -295 -65 -113 -85 -182 -85 -296 1 -116 22
-187 88 -298 55 -93 170 -216 186 -201 9 9 -2 42 -48 140 -69 149 -86 213 -81
310 8 132 92 247 269 369 284 196 478 504 580 918 32 129 50 167 80 167 43 0
70 -92 91 -305 19 -202 30 -171 25 70 -5 228 -14 304 -61 500 -51 214 -53 255
-13 255 15 0 18 4 12 23 -15 51 -35 88 -101 192 -38 61 -78 132 -88 159 -18
47 -18 49 0 62 17 13 12 20 -75 108 -106 107 -116 121 -100 140 14 18 -32 46
-250 153 -91 45 -208 110 -260 144 -112 74 -239 199 -275 269 -46 90 -27 188
44 224 37 20 50 15 80 -30 67 -98 159 -146 323 -169 129 -18 184 -45 293 -143
114 -104 197 -134 225 -82 9 17 4 23 -32 46 -82 50 -86 73 -28 159 22 33 47
79 56 102 16 42 16 44 -6 75 -42 59 -168 150 -250 179 -41 14 -89 33 -105 41
-17 9 -55 23 -85 32 -76 22 -88 31 -74 53 16 26 70 42 143 42 51 1 80 -6 145
-33 111 -46 101 -44 270 -71 191 -32 261 -33 276 -5 16 30 30 225 19 264 -19
67 -78 102 -227 135 -184 40 -244 91 -387 326 -112 184 -152 212 -258 181 -91
-26 -108 -22 -221 60 -33 24 -64 44 -68 44 -4 0 -17 -18 -28 -39 -25 -50 -55
-71 -101 -71 -28 0 -54 13 -119 60 -83 60 -130 76 -130 43z m670 -308 c36 -19
52 -47 52 -93 0 -48 -47 -92 -98 -92 -96 0 -131 138 -46 184 35 19 56 20 92 1z"/>
<path d="M3587 3963 c-20 -19 5 -43 153 -140 166 -110 196 -137 246 -224 60
-104 62 -105 129 -86 96 27 157 -1 254 -117 92 -112 155 -156 250 -177 85 -18
221 20 221 61 0 27 -33 47 -126 75 -79 24 -127 57 -138 94 -3 9 -10 42 -15 74
-14 79 -35 119 -86 166 -35 32 -56 42 -121 56 -95 21 -125 35 -184 88 -63 56
-113 75 -237 92 -59 9 -151 22 -203 30 -106 17 -133 18 -143 8z"/>
</g>
</svg>
